<mxfile host="app.diagrams.net" agent="Mozilla/5.0 (Windows NT 10.0; Win64; x64) AppleWebKit/537.36 (KHTML, like Gecko) Chrome/127.0.0.0 Safari/537.36 Edg/127.0.0.0" version="24.7.6">
  <diagram name="第 1 页" id="KwSZ7kVVmPbDGJ6hqoho">
    <mxGraphModel dx="1878" dy="642" grid="1" gridSize="10" guides="1" tooltips="1" connect="1" arrows="1" fold="1" page="1" pageScale="1" pageWidth="900" pageHeight="1600" background="none" math="0" shadow="0">
      <root>
        <mxCell id="0" />
        <mxCell id="1" parent="0" />
        <mxCell id="UHZfjMjKsQxdZFrNLwMT-17" style="edgeStyle=orthogonalEdgeStyle;rounded=0;orthogonalLoop=1;jettySize=auto;html=1;exitX=1;exitY=0.5;exitDx=0;exitDy=0;" parent="1" source="UHZfjMjKsQxdZFrNLwMT-5" edge="1">
          <mxGeometry relative="1" as="geometry">
            <mxPoint x="145.0689655172414" y="60.0344827586207" as="targetPoint" />
          </mxGeometry>
        </mxCell>
        <mxCell id="UHZfjMjKsQxdZFrNLwMT-5" value="业务平台" style="rounded=0;whiteSpace=wrap;html=1;" parent="1" vertex="1">
          <mxGeometry x="40" y="40" width="105" height="40" as="geometry" />
        </mxCell>
        <mxCell id="UHZfjMjKsQxdZFrNLwMT-14" value="" style="edgeStyle=orthogonalEdgeStyle;rounded=0;orthogonalLoop=1;jettySize=auto;html=1;" parent="1" source="UHZfjMjKsQxdZFrNLwMT-6" target="UHZfjMjKsQxdZFrNLwMT-13" edge="1">
          <mxGeometry relative="1" as="geometry" />
        </mxCell>
        <mxCell id="UHZfjMjKsQxdZFrNLwMT-6" value="虚拟化层（抽象）" style="rounded=0;whiteSpace=wrap;html=1;" parent="1" vertex="1">
          <mxGeometry x="40" y="120" width="105" height="40" as="geometry" />
        </mxCell>
        <mxCell id="UHZfjMjKsQxdZFrNLwMT-7" value="" style="endArrow=classic;html=1;rounded=0;exitX=0.5;exitY=1;exitDx=0;exitDy=0;" parent="1" source="UHZfjMjKsQxdZFrNLwMT-5" target="UHZfjMjKsQxdZFrNLwMT-6" edge="1">
          <mxGeometry width="50" height="50" relative="1" as="geometry">
            <mxPoint x="255" y="290" as="sourcePoint" />
            <mxPoint x="305" y="240" as="targetPoint" />
          </mxGeometry>
        </mxCell>
        <mxCell id="UHZfjMjKsQxdZFrNLwMT-12" value="" style="edgeStyle=orthogonalEdgeStyle;rounded=0;orthogonalLoop=1;jettySize=auto;html=1;entryX=1;entryY=0.5;entryDx=0;entryDy=0;" parent="1" source="UHZfjMjKsQxdZFrNLwMT-8" target="UHZfjMjKsQxdZFrNLwMT-11" edge="1">
          <mxGeometry relative="1" as="geometry">
            <mxPoint x="155" y="340" as="targetPoint" />
            <Array as="points">
              <mxPoint x="185" y="340" />
            </Array>
          </mxGeometry>
        </mxCell>
        <mxCell id="UHZfjMjKsQxdZFrNLwMT-8" value="K8S集群管理..." style="rounded=0;whiteSpace=wrap;html=1;" parent="1" vertex="1">
          <mxGeometry x="135" y="220" width="100" height="40" as="geometry" />
        </mxCell>
        <mxCell id="UHZfjMjKsQxdZFrNLwMT-11" value="物理服务器资源..." style="rounded=0;whiteSpace=wrap;html=1;" parent="1" vertex="1">
          <mxGeometry x="40" y="320" width="110" height="40" as="geometry" />
        </mxCell>
        <mxCell id="UHZfjMjKsQxdZFrNLwMT-13" value="负责实例相关资源的生周期维护" style="rounded=0;whiteSpace=wrap;html=1;" parent="1" vertex="1">
          <mxGeometry x="235" y="120" width="130" height="40" as="geometry" />
        </mxCell>
        <mxCell id="UHZfjMjKsQxdZFrNLwMT-15" value="" style="endArrow=classic;html=1;rounded=0;entryX=0;entryY=0.5;entryDx=0;entryDy=0;" parent="1" target="UHZfjMjKsQxdZFrNLwMT-8" edge="1">
          <mxGeometry width="50" height="50" relative="1" as="geometry">
            <mxPoint x="95" y="170" as="sourcePoint" />
            <mxPoint x="305" y="170" as="targetPoint" />
            <Array as="points">
              <mxPoint x="95" y="210" />
              <mxPoint x="95" y="240" />
            </Array>
          </mxGeometry>
        </mxCell>
        <mxCell id="UHZfjMjKsQxdZFrNLwMT-16" value="" style="endArrow=classic;html=1;rounded=0;entryX=0.5;entryY=0;entryDx=0;entryDy=0;" parent="1" target="UHZfjMjKsQxdZFrNLwMT-11" edge="1">
          <mxGeometry width="50" height="50" relative="1" as="geometry">
            <mxPoint x="95" y="160" as="sourcePoint" />
            <mxPoint x="185" y="230" as="targetPoint" />
          </mxGeometry>
        </mxCell>
        <mxCell id="UHZfjMjKsQxdZFrNLwMT-32" value="" style="edgeStyle=orthogonalEdgeStyle;rounded=0;orthogonalLoop=1;jettySize=auto;html=1;" parent="1" source="UHZfjMjKsQxdZFrNLwMT-18" target="UHZfjMjKsQxdZFrNLwMT-31" edge="1">
          <mxGeometry relative="1" as="geometry">
            <Array as="points">
              <mxPoint x="190" y="610" />
              <mxPoint x="190" y="740" />
            </Array>
          </mxGeometry>
        </mxCell>
        <mxCell id="UHZfjMjKsQxdZFrNLwMT-18" value="创建容器" style="rounded=0;whiteSpace=wrap;html=1;" parent="1" vertex="1">
          <mxGeometry x="40" y="590" width="87.5" height="40" as="geometry" />
        </mxCell>
        <mxCell id="UHZfjMjKsQxdZFrNLwMT-44" value="" style="edgeStyle=orthogonalEdgeStyle;rounded=0;orthogonalLoop=1;jettySize=auto;html=1;exitX=1;exitY=0.5;exitDx=0;exitDy=0;" parent="1" source="UHZfjMjKsQxdZFrNLwMT-19" target="UHZfjMjKsQxdZFrNLwMT-31" edge="1">
          <mxGeometry relative="1" as="geometry">
            <Array as="points">
              <mxPoint x="190" y="690" />
              <mxPoint x="190" y="740" />
            </Array>
          </mxGeometry>
        </mxCell>
        <mxCell id="UHZfjMjKsQxdZFrNLwMT-19" value="启动容器" style="rounded=0;whiteSpace=wrap;html=1;" parent="1" vertex="1">
          <mxGeometry x="40" y="670" width="87.5" height="40" as="geometry" />
        </mxCell>
        <mxCell id="UHZfjMjKsQxdZFrNLwMT-45" value="" style="edgeStyle=orthogonalEdgeStyle;rounded=0;orthogonalLoop=1;jettySize=auto;html=1;" parent="1" source="UHZfjMjKsQxdZFrNLwMT-20" target="UHZfjMjKsQxdZFrNLwMT-31" edge="1">
          <mxGeometry relative="1" as="geometry">
            <Array as="points">
              <mxPoint x="190" y="770" />
              <mxPoint x="190" y="740" />
            </Array>
          </mxGeometry>
        </mxCell>
        <mxCell id="UHZfjMjKsQxdZFrNLwMT-20" value="停止容器" style="rounded=0;whiteSpace=wrap;html=1;" parent="1" vertex="1">
          <mxGeometry x="40" y="750" width="87.5" height="40" as="geometry" />
        </mxCell>
        <mxCell id="UHZfjMjKsQxdZFrNLwMT-47" value="" style="edgeStyle=orthogonalEdgeStyle;rounded=0;orthogonalLoop=1;jettySize=auto;html=1;entryX=0;entryY=0.5;entryDx=0;entryDy=0;" parent="1" source="UHZfjMjKsQxdZFrNLwMT-22" target="UHZfjMjKsQxdZFrNLwMT-31" edge="1">
          <mxGeometry relative="1" as="geometry">
            <mxPoint x="207.5" y="840" as="targetPoint" />
            <Array as="points">
              <mxPoint x="190" y="840" />
              <mxPoint x="190" y="740" />
            </Array>
          </mxGeometry>
        </mxCell>
        <mxCell id="UHZfjMjKsQxdZFrNLwMT-22" value="删除容器" style="rounded=0;whiteSpace=wrap;html=1;" parent="1" vertex="1">
          <mxGeometry x="40" y="820" width="87.5" height="40" as="geometry" />
        </mxCell>
        <mxCell id="UHZfjMjKsQxdZFrNLwMT-38" value="" style="edgeStyle=orthogonalEdgeStyle;rounded=0;orthogonalLoop=1;jettySize=auto;html=1;" parent="1" source="UHZfjMjKsQxdZFrNLwMT-25" target="UHZfjMjKsQxdZFrNLwMT-18" edge="1">
          <mxGeometry relative="1" as="geometry">
            <Array as="points">
              <mxPoint x="80" y="580" />
              <mxPoint x="80" y="580" />
            </Array>
          </mxGeometry>
        </mxCell>
        <mxCell id="UHZfjMjKsQxdZFrNLwMT-25" value="业务：&lt;div&gt;userId，&lt;div&gt;machineId，&lt;/div&gt;&lt;div&gt;imageName，&lt;/div&gt;&lt;div&gt;sshpassword，&lt;/div&gt;&lt;div&gt;sshPublicKey，&lt;/div&gt;&lt;div&gt;gpuCount&lt;div&gt;&lt;br style=&quot;text-wrap: wrap;&quot;&gt;&lt;/div&gt;&lt;/div&gt;&lt;/div&gt;" style="text;html=1;align=left;verticalAlign=middle;resizable=0;points=[];autosize=1;strokeColor=none;fillColor=none;" parent="1" vertex="1">
          <mxGeometry x="40" y="440" width="110" height="130" as="geometry" />
        </mxCell>
        <mxCell id="UHZfjMjKsQxdZFrNLwMT-34" value="" style="edgeStyle=orthogonalEdgeStyle;rounded=0;orthogonalLoop=1;jettySize=auto;html=1;" parent="1" source="UHZfjMjKsQxdZFrNLwMT-31" target="UHZfjMjKsQxdZFrNLwMT-33" edge="1">
          <mxGeometry relative="1" as="geometry" />
        </mxCell>
        <mxCell id="UHZfjMjKsQxdZFrNLwMT-31" value="维护容器信息表" style="rounded=0;whiteSpace=wrap;html=1;" parent="1" vertex="1">
          <mxGeometry x="230" y="720" width="87.5" height="40" as="geometry" />
        </mxCell>
        <mxCell id="UHZfjMjKsQxdZFrNLwMT-37" value="" style="edgeStyle=orthogonalEdgeStyle;rounded=0;orthogonalLoop=1;jettySize=auto;html=1;" parent="1" source="UHZfjMjKsQxdZFrNLwMT-33" target="UHZfjMjKsQxdZFrNLwMT-36" edge="1">
          <mxGeometry relative="1" as="geometry" />
        </mxCell>
        <mxCell id="UHZfjMjKsQxdZFrNLwMT-33" value="返回数据到&lt;div&gt;&lt;span style=&quot;background-color: initial;&quot;&gt;业务&lt;/span&gt;&lt;br&gt;&lt;/div&gt;" style="rounded=0;whiteSpace=wrap;html=1;" parent="1" vertex="1">
          <mxGeometry x="379.75" y="720" width="87.5" height="40" as="geometry" />
        </mxCell>
        <mxCell id="UHZfjMjKsQxdZFrNLwMT-36" value="&lt;div&gt;维护服务器资源信息表&lt;/div&gt;" style="rounded=0;whiteSpace=wrap;html=1;" parent="1" vertex="1">
          <mxGeometry x="510" y="718.75" width="90" height="41.25" as="geometry" />
        </mxCell>
        <mxCell id="UHZfjMjKsQxdZFrNLwMT-40" value="返回：&lt;div&gt;code：&lt;div&gt;message：&lt;/div&gt;&lt;div&gt;success：&lt;/div&gt;&lt;div&gt;data：&lt;/div&gt;&lt;/div&gt;" style="text;html=1;align=left;verticalAlign=middle;resizable=0;points=[];autosize=1;strokeColor=none;fillColor=none;" parent="1" vertex="1">
          <mxGeometry x="379.75" y="620" width="80" height="90" as="geometry" />
        </mxCell>
        <mxCell id="UHZfjMjKsQxdZFrNLwMT-48" value="容器的基础信息，&lt;div&gt;资源信息维护&lt;/div&gt;" style="text;html=1;align=left;verticalAlign=middle;resizable=0;points=[];autosize=1;strokeColor=none;fillColor=none;" parent="1" vertex="1">
          <mxGeometry x="230" y="650" width="120" height="40" as="geometry" />
        </mxCell>
        <mxCell id="UHZfjMjKsQxdZFrNLwMT-49" value="CPU资源维护，&lt;div&gt;创建容器: gpu_apply +&lt;div&gt;启动容器: gpu_use +&lt;/div&gt;&lt;div&gt;停止容器: gpu_use -&lt;/div&gt;&lt;div&gt;删除容器: gpu_use/apply -&lt;/div&gt;&lt;/div&gt;" style="text;html=1;align=left;verticalAlign=middle;resizable=0;points=[];autosize=1;strokeColor=none;fillColor=none;" parent="1" vertex="1">
          <mxGeometry x="500" y="630" width="160" height="90" as="geometry" />
        </mxCell>
        <mxCell id="UHZfjMjKsQxdZFrNLwMT-50" value="gpu_apply" style="text;html=1;align=center;verticalAlign=middle;resizable=0;points=[];autosize=1;strokeColor=none;fillColor=none;" parent="1" vertex="1">
          <mxGeometry x="120" y="578" width="80" height="30" as="geometry" />
        </mxCell>
        <mxCell id="UHZfjMjKsQxdZFrNLwMT-51" value="gpu_use" style="text;html=1;align=center;verticalAlign=middle;resizable=0;points=[];autosize=1;strokeColor=none;fillColor=none;" parent="1" vertex="1">
          <mxGeometry x="120" y="660" width="70" height="30" as="geometry" />
        </mxCell>
        <mxCell id="UHZfjMjKsQxdZFrNLwMT-52" value="gpu_use" style="text;html=1;align=center;verticalAlign=middle;resizable=0;points=[];autosize=1;strokeColor=none;fillColor=none;" parent="1" vertex="1">
          <mxGeometry x="120" y="740" width="70" height="30" as="geometry" />
        </mxCell>
        <mxCell id="UHZfjMjKsQxdZFrNLwMT-53" value="gpu_apply&lt;br&gt;gpu_use" style="text;html=1;align=left;verticalAlign=middle;resizable=0;points=[];autosize=1;strokeColor=none;fillColor=none;" parent="1" vertex="1">
          <mxGeometry x="127.5" y="800" width="80" height="40" as="geometry" />
        </mxCell>
        <mxCell id="eOj0Sw7AvTQhNvmPXwvu-1" value="服务器节点docker 客户端获取" style="rounded=0;whiteSpace=wrap;html=1;" vertex="1" parent="1">
          <mxGeometry x="-160" y="725" width="120" height="40" as="geometry" />
        </mxCell>
        <mxCell id="eOj0Sw7AvTQhNvmPXwvu-3" value="" style="edgeStyle=orthogonalEdgeStyle;rounded=0;orthogonalLoop=1;jettySize=auto;html=1;" edge="1" parent="1" source="eOj0Sw7AvTQhNvmPXwvu-2" target="eOj0Sw7AvTQhNvmPXwvu-1">
          <mxGeometry relative="1" as="geometry" />
        </mxCell>
        <mxCell id="eOj0Sw7AvTQhNvmPXwvu-2" value="服务器资源信息表" style="rounded=0;whiteSpace=wrap;html=1;" vertex="1" parent="1">
          <mxGeometry x="-400" y="725" width="120" height="40" as="geometry" />
        </mxCell>
        <mxCell id="eOj0Sw7AvTQhNvmPXwvu-4" value="通过machineId&lt;div&gt;获取tcp连接地址&lt;/div&gt;" style="text;html=1;align=center;verticalAlign=middle;resizable=0;points=[];autosize=1;strokeColor=none;fillColor=none;" vertex="1" parent="1">
          <mxGeometry x="-280" y="725" width="110" height="40" as="geometry" />
        </mxCell>
        <mxCell id="eOj0Sw7AvTQhNvmPXwvu-8" value="" style="endArrow=classic;html=1;rounded=0;exitX=1;exitY=0.5;exitDx=0;exitDy=0;entryX=0;entryY=0.5;entryDx=0;entryDy=0;" edge="1" parent="1" source="eOj0Sw7AvTQhNvmPXwvu-1" target="UHZfjMjKsQxdZFrNLwMT-18">
          <mxGeometry width="50" height="50" relative="1" as="geometry">
            <mxPoint x="-70" y="780" as="sourcePoint" />
            <mxPoint x="-20" y="730" as="targetPoint" />
            <Array as="points">
              <mxPoint y="745" />
              <mxPoint y="610" />
            </Array>
          </mxGeometry>
        </mxCell>
        <mxCell id="eOj0Sw7AvTQhNvmPXwvu-9" value="" style="endArrow=classic;html=1;rounded=0;exitX=1;exitY=0.5;exitDx=0;exitDy=0;entryX=0;entryY=0.5;entryDx=0;entryDy=0;" edge="1" parent="1" source="eOj0Sw7AvTQhNvmPXwvu-1" target="UHZfjMjKsQxdZFrNLwMT-19">
          <mxGeometry width="50" height="50" relative="1" as="geometry">
            <mxPoint x="-60" y="755" as="sourcePoint" />
            <mxPoint x="50" y="620" as="targetPoint" />
            <Array as="points">
              <mxPoint y="745" />
              <mxPoint y="690" />
            </Array>
          </mxGeometry>
        </mxCell>
        <mxCell id="eOj0Sw7AvTQhNvmPXwvu-10" value="" style="endArrow=classic;html=1;rounded=0;entryX=0;entryY=0.5;entryDx=0;entryDy=0;exitX=1;exitY=0.5;exitDx=0;exitDy=0;" edge="1" parent="1" source="eOj0Sw7AvTQhNvmPXwvu-1" target="UHZfjMjKsQxdZFrNLwMT-20">
          <mxGeometry width="50" height="50" relative="1" as="geometry">
            <mxPoint x="-70" y="750" as="sourcePoint" />
            <mxPoint x="60" y="630" as="targetPoint" />
            <Array as="points">
              <mxPoint y="745" />
              <mxPoint y="770" />
            </Array>
          </mxGeometry>
        </mxCell>
        <mxCell id="eOj0Sw7AvTQhNvmPXwvu-11" value="" style="endArrow=classic;html=1;rounded=0;exitX=1;exitY=0.5;exitDx=0;exitDy=0;entryX=0;entryY=0.5;entryDx=0;entryDy=0;" edge="1" parent="1" source="eOj0Sw7AvTQhNvmPXwvu-1" target="UHZfjMjKsQxdZFrNLwMT-22">
          <mxGeometry width="50" height="50" relative="1" as="geometry">
            <mxPoint x="-40" y="775" as="sourcePoint" />
            <mxPoint x="70" y="640" as="targetPoint" />
            <Array as="points">
              <mxPoint y="745" />
              <mxPoint y="840" />
            </Array>
          </mxGeometry>
        </mxCell>
        <mxCell id="eOj0Sw7AvTQhNvmPXwvu-13" value="业务侧维护" style="text;html=1;align=center;verticalAlign=middle;resizable=0;points=[];autosize=1;strokeColor=none;fillColor=none;" vertex="1" parent="1">
          <mxGeometry x="-380" y="690" width="80" height="30" as="geometry" />
        </mxCell>
        <mxCell id="eOj0Sw7AvTQhNvmPXwvu-14" value="client" style="text;html=1;align=center;verticalAlign=middle;resizable=0;points=[];autosize=1;strokeColor=none;fillColor=none;" vertex="1" parent="1">
          <mxGeometry x="-50" y="720" width="50" height="30" as="geometry" />
        </mxCell>
      </root>
    </mxGraphModel>
  </diagram>
</mxfile>
